<svg xmlns="http://www.w3.org/2000/svg" xmlns:xlink="http://www.w3.org/1999/xlink" width="500" zoomAndPan="magnify" viewBox="0 0 375 77.999999" height="104" preserveAspectRatio="xMidYMid meet" version="1.0"><defs><g/></defs><g fill="#000000" fill-opacity="1"><g transform="translate(18.77904, 61.807859)"><g><path d="M 13.203125 -14.828125 L 13.203125 0 L 3.125 0 L 3.125 -40.796875 L 30.640625 -40.796875 L 30.640625 -31.6875 L 13.203125 -31.6875 L 13.203125 -23.296875 L 28.234375 -23.296875 L 28.234375 -14.828125 Z M 13.203125 -14.828125 "/></g></g></g><g fill="#000000" fill-opacity="1"><g transform="translate(53.652687, 61.807859)"><g><path d="M 12.8125 -35.65625 L 2.53125 -35.65625 L 2.53125 -43.265625 L 12.8125 -43.265625 Z M 12.5625 0 L 2.796875 0 L 2.796875 -32.140625 L 12.5625 -32.140625 Z M 12.5625 0 "/></g></g></g><g fill="#000000" fill-opacity="1"><g transform="translate(72.065521, 61.807859)"><g><path d="M 12.5625 0 L 2.796875 0 L 2.796875 -32.140625 L 11.25 -32.140625 L 11.640625 -28.75 L 11.84375 -28.75 C 13.226562 -30.1875 14.734375 -31.21875 16.359375 -31.84375 C 17.984375 -32.476562 19.945312 -32.796875 22.25 -32.796875 C 25.894531 -32.796875 28.648438 -31.90625 30.515625 -30.125 C 32.378906 -28.34375 33.3125 -25.71875 33.3125 -22.25 L 33.3125 0 L 23.546875 0 L 23.546875 -20.953125 C 23.546875 -21.953125 23.144531 -22.710938 22.34375 -23.234375 C 21.539062 -23.753906 20.359375 -24.015625 18.796875 -24.015625 C 17.628906 -24.015625 16.503906 -23.882812 15.421875 -23.625 C 14.335938 -23.363281 13.382812 -22.992188 12.5625 -22.515625 Z M 12.5625 0 "/></g></g></g><g fill="#000000" fill-opacity="1"><g transform="translate(111.10317, 61.807859)"><g><path d="M 4.875 -24.015625 L 1.109375 -24.015625 L 1.109375 -32.140625 L 5.203125 -32.140625 L 6.4375 -39.625 L 14.640625 -39.625 L 14.640625 -32.140625 L 23.75 -32.140625 L 23.75 -24.015625 L 14.640625 -24.015625 L 14.640625 -11.515625 C 14.640625 -10.296875 14.953125 -9.476562 15.578125 -9.0625 C 16.210938 -8.65625 17.460938 -8.453125 19.328125 -8.453125 C 19.972656 -8.453125 20.769531 -8.503906 21.71875 -8.609375 C 22.675781 -8.722656 23.484375 -8.847656 24.140625 -8.984375 L 24.140625 -0.65625 C 23.441406 -0.34375 22.363281 -0.046875 20.90625 0.234375 C 19.457031 0.515625 18.171875 0.65625 17.046875 0.65625 C 12.710938 0.65625 9.597656 -0.265625 7.703125 -2.109375 C 5.816406 -3.953125 4.875 -6.957031 4.875 -11.125 Z M 4.875 -24.015625 "/></g></g></g><g fill="#000000" fill-opacity="1"><g transform="translate(138.950065, 61.807859)"><g><path d="M 12.5625 0 L 2.796875 0 L 2.796875 -32.140625 L 11.90625 -32.140625 L 12.234375 -29.671875 L 12.359375 -29.671875 C 13.921875 -30.617188 15.515625 -31.34375 17.140625 -31.84375 C 18.765625 -32.34375 20.296875 -32.59375 21.734375 -32.59375 L 22.25 -32.59375 L 22.25 -23.15625 C 21.863281 -23.25 21.441406 -23.304688 20.984375 -23.328125 C 20.523438 -23.347656 19.953125 -23.359375 19.265625 -23.359375 C 18.003906 -23.359375 16.804688 -23.28125 15.671875 -23.125 C 14.546875 -22.976562 13.507812 -22.753906 12.5625 -22.453125 Z M 12.5625 0 "/></g></g></g><g fill="#000000" fill-opacity="1"><g transform="translate(165.105341, 61.807859)"><g><path d="M 10.609375 0.65625 C 7.304688 0.65625 4.882812 -0.164062 3.34375 -1.8125 C 1.8125 -3.46875 1.046875 -6.070312 1.046875 -9.625 C 1.046875 -13.269531 1.96875 -15.828125 3.8125 -17.296875 C 5.65625 -18.773438 8.832031 -19.515625 13.34375 -19.515625 C 14.382812 -19.515625 15.457031 -19.457031 16.5625 -19.34375 C 17.664062 -19.238281 18.628906 -19.101562 19.453125 -18.9375 L 19.453125 -21.28125 C 19.453125 -22.320312 19.003906 -23.085938 18.109375 -23.578125 C 17.222656 -24.078125 15.867188 -24.328125 14.046875 -24.328125 C 11.972656 -24.328125 10.117188 -24.273438 8.484375 -24.171875 C 6.859375 -24.066406 5.375 -23.882812 4.03125 -23.625 L 4.03125 -31.625 C 5.632812 -32.007812 7.5 -32.300781 9.625 -32.5 C 11.75 -32.695312 14.222656 -32.796875 17.046875 -32.796875 C 21.035156 -32.796875 24.0625 -31.90625 26.125 -30.125 C 28.1875 -28.34375 29.21875 -25.71875 29.21875 -22.25 L 29.21875 0 L 20.109375 0 L 19.78125 -2.734375 L 19.578125 -2.734375 C 18.234375 -1.691406 16.757812 -0.863281 15.15625 -0.25 C 13.550781 0.351562 12.035156 0.65625 10.609375 0.65625 Z M 14.640625 -13.078125 C 12.898438 -13.078125 11.726562 -12.890625 11.125 -12.515625 C 10.519531 -12.148438 10.21875 -11.382812 10.21875 -10.21875 C 10.21875 -9.132812 10.46875 -8.382812 10.96875 -7.96875 C 11.46875 -7.5625 12.34375 -7.359375 13.59375 -7.359375 C 14.550781 -7.359375 15.550781 -7.488281 16.59375 -7.75 C 17.632812 -8.007812 18.585938 -8.332031 19.453125 -8.71875 L 19.453125 -12.6875 C 18.929688 -12.8125 18.28125 -12.90625 17.5 -12.96875 C 16.71875 -13.039062 15.765625 -13.078125 14.640625 -13.078125 Z M 14.640625 -13.078125 "/></g></g></g><g fill="#000000" fill-opacity="1"><g transform="translate(200.04406, 61.807859)"><g><path d="M 26.671875 -9.828125 L 26.671875 -1.75 C 25.628906 -1.101562 23.9375 -0.539062 21.59375 -0.0625 C 19.257812 0.414062 16.851562 0.65625 14.375 0.65625 C 9.695312 0.65625 6.410156 -0.585938 4.515625 -3.078125 C 2.628906 -5.578125 1.6875 -9.910156 1.6875 -16.078125 C 1.6875 -22.234375 2.898438 -26.554688 5.328125 -29.046875 C 7.765625 -31.546875 12.019531 -32.796875 18.09375 -32.796875 C 19.5625 -32.796875 20.878906 -32.757812 22.046875 -32.6875 C 23.222656 -32.625 24.484375 -32.507812 25.828125 -32.34375 L 25.828125 -23.6875 C 23.703125 -23.851562 22.160156 -23.945312 21.203125 -23.96875 C 20.253906 -24 19.21875 -24.015625 18.09375 -24.015625 C 15.09375 -24.015625 13.234375 -23.585938 12.515625 -22.734375 C 11.804688 -21.890625 11.453125 -19.671875 11.453125 -16.078125 C 11.453125 -12.816406 11.742188 -10.726562 12.328125 -9.8125 C 12.910156 -8.90625 14.265625 -8.453125 16.390625 -8.453125 C 18.128906 -8.453125 19.941406 -8.582031 21.828125 -8.84375 C 23.710938 -9.101562 25.328125 -9.429688 26.671875 -9.828125 Z M 26.671875 -9.828125 "/></g></g></g><g fill="#000000" fill-opacity="1"><g transform="translate(231.013968, 61.807859)"><g><path d="M 12.5625 -12.484375 L 12.5625 0 L 2.796875 0 L 2.796875 -43.265625 L 12.5625 -43.265625 L 12.5625 -20.046875 L 14.046875 -20.046875 L 22.1875 -32.140625 L 33.765625 -32.140625 L 22.453125 -16.65625 L 34.421875 0 L 22.515625 0 L 14.046875 -12.484375 Z M 12.5625 -12.484375 "/></g></g></g><g fill="#000000" fill-opacity="1"><g transform="translate(267.839498, 61.807859)"><g><path d="M 11.328125 0 L 1.890625 0 L 1.890625 -8.984375 L 11.328125 -8.984375 Z M 11.328125 0 "/></g></g></g><g fill="#55b02e" fill-opacity="1"><g transform="translate(284.114964, 61.807859)"><g><path d="M 10.40625 0 L -0.1875 0 L 14.90625 -40.796875 L 25.375 -40.796875 L 40.078125 0 L 29.53125 0 L 27.390625 -6.828125 L 12.5625 -6.828125 Z M 19.90625 -30.78125 C 19.5625 -29.5625 19.179688 -28.269531 18.765625 -26.90625 C 18.359375 -25.539062 17.675781 -23.316406 16.71875 -20.234375 L 15.03125 -14.828125 L 24.859375 -14.828125 L 23.15625 -20.234375 C 22.59375 -21.878906 22.03125 -23.625 21.46875 -25.46875 C 20.90625 -27.3125 20.382812 -29.082031 19.90625 -30.78125 Z M 19.90625 -30.78125 "/></g></g></g><g fill="#55b02e" fill-opacity="1"><g transform="translate(327.186495, 61.807859)"><g><path d="M 13.203125 -40.796875 L 13.203125 0 L 3.125 0 L 3.125 -40.796875 Z M 13.203125 -40.796875 "/></g></g></g><g fill="#000000" fill-opacity="1"><g transform="translate(346.575898, 61.807859)"><g/></g></g></svg>