<svg xmlns="http://www.w3.org/2000/svg" xmlns:xlink="http://www.w3.org/1999/xlink" width="185" zoomAndPan="magnify" viewBox="0 0 138.75 35.25" height="47" preserveAspectRatio="xMidYMid meet" version="1.0"><defs><g/><clipPath id="e10e76e4f4"><path d="M 8.300781 17 L 22.988281 17 L 22.988281 34.515625 L 8.300781 34.515625 Z M 8.300781 17 " clip-rule="nonzero"/></clipPath><clipPath id="93cabb7c83"><path d="M 8.300781 0.0234375 L 22.988281 0.0234375 L 22.988281 22 L 8.300781 22 Z M 8.300781 0.0234375 " clip-rule="nonzero"/></clipPath></defs><g clip-path="url(#e10e76e4f4)"><path fill="#55b02e" d="M 20.621094 34.21875 L 8.316406 21.917969 L 12.96875 17.265625 L 20.621094 24.917969 C 23.1875 27.484375 23.1875 31.652344 20.621094 34.21875 Z M 20.621094 34.21875 " fill-opacity="1" fill-rule="nonzero"/></g><g clip-path="url(#93cabb7c83)"><path fill="#000000" d="M 20.621094 9.613281 L 8.316406 21.917969 L 8.316406 12.613281 L 20.621094 0.308594 C 23.199219 2.875 23.199219 7.046875 20.621094 9.613281 Z M 20.621094 9.613281 " fill-opacity="1" fill-rule="nonzero"/></g><g fill="#000000" fill-opacity="1"><g transform="translate(29.382963, 23.597801)"><g><path d="M 4.046875 -4.53125 L 4.046875 0 L 0.953125 0 L 0.953125 -12.484375 L 9.375 -12.484375 L 9.375 -9.6875 L 4.046875 -9.6875 L 4.046875 -7.125 L 8.640625 -7.125 L 8.640625 -4.53125 Z M 4.046875 -4.53125 "/></g></g></g><g fill="#000000" fill-opacity="1"><g transform="translate(40.054228, 23.597801)"><g><path d="M 3.921875 -10.90625 L 0.78125 -10.90625 L 0.78125 -13.234375 L 3.921875 -13.234375 Z M 3.84375 0 L 0.859375 0 L 0.859375 -9.828125 L 3.84375 -9.828125 Z M 3.84375 0 "/></g></g></g><g fill="#000000" fill-opacity="1"><g transform="translate(45.688628, 23.597801)"><g><path d="M 3.84375 0 L 0.859375 0 L 0.859375 -9.828125 L 3.4375 -9.828125 L 3.5625 -8.796875 L 3.625 -8.796875 C 4.050781 -9.234375 4.507812 -9.546875 5 -9.734375 C 5.5 -9.929688 6.101562 -10.03125 6.8125 -10.03125 C 7.925781 -10.03125 8.765625 -9.757812 9.328125 -9.21875 C 9.898438 -8.675781 10.1875 -7.875 10.1875 -6.8125 L 10.1875 0 L 7.203125 0 L 7.203125 -6.40625 C 7.203125 -6.71875 7.078125 -6.953125 6.828125 -7.109375 C 6.585938 -7.265625 6.226562 -7.34375 5.75 -7.34375 C 5.394531 -7.34375 5.050781 -7.300781 4.71875 -7.21875 C 4.382812 -7.144531 4.09375 -7.035156 3.84375 -6.890625 Z M 3.84375 0 "/></g></g></g><g fill="#000000" fill-opacity="1"><g transform="translate(57.63404, 23.597801)"><g><path d="M 1.5 -7.34375 L 0.34375 -7.34375 L 0.34375 -9.828125 L 1.59375 -9.828125 L 1.96875 -12.125 L 4.484375 -12.125 L 4.484375 -9.828125 L 7.265625 -9.828125 L 7.265625 -7.34375 L 4.484375 -7.34375 L 4.484375 -3.515625 C 4.484375 -3.148438 4.578125 -2.90625 4.765625 -2.78125 C 4.960938 -2.65625 5.34375 -2.59375 5.90625 -2.59375 C 6.101562 -2.59375 6.347656 -2.609375 6.640625 -2.640625 C 6.941406 -2.671875 7.191406 -2.707031 7.390625 -2.75 L 7.390625 -0.203125 C 7.171875 -0.109375 6.835938 -0.0195312 6.390625 0.0625 C 5.953125 0.15625 5.5625 0.203125 5.21875 0.203125 C 3.882812 0.203125 2.929688 -0.078125 2.359375 -0.640625 C 1.785156 -1.210938 1.5 -2.132812 1.5 -3.40625 Z M 1.5 -7.34375 "/></g></g></g><g fill="#000000" fill-opacity="1"><g transform="translate(66.155185, 23.597801)"><g><path d="M 3.84375 0 L 0.859375 0 L 0.859375 -9.828125 L 3.640625 -9.828125 L 3.75 -9.078125 L 3.78125 -9.078125 C 4.257812 -9.367188 4.742188 -9.585938 5.234375 -9.734375 C 5.734375 -9.890625 6.207031 -9.96875 6.65625 -9.96875 L 6.8125 -9.96875 L 6.8125 -7.09375 C 6.6875 -7.113281 6.550781 -7.125 6.40625 -7.125 C 6.269531 -7.132812 6.097656 -7.140625 5.890625 -7.140625 C 5.503906 -7.140625 5.140625 -7.113281 4.796875 -7.0625 C 4.453125 -7.019531 4.132812 -6.957031 3.84375 -6.875 Z M 3.84375 0 "/></g></g></g><g fill="#000000" fill-opacity="1"><g transform="translate(74.158703, 23.597801)"><g><path d="M 3.25 0.203125 C 2.238281 0.203125 1.492188 -0.046875 1.015625 -0.546875 C 0.546875 -1.054688 0.3125 -1.859375 0.3125 -2.953125 C 0.3125 -4.066406 0.59375 -4.847656 1.15625 -5.296875 C 1.726562 -5.742188 2.703125 -5.96875 4.078125 -5.96875 C 4.398438 -5.96875 4.726562 -5.953125 5.0625 -5.921875 C 5.40625 -5.890625 5.703125 -5.847656 5.953125 -5.796875 L 5.953125 -6.515625 C 5.953125 -6.828125 5.816406 -7.054688 5.546875 -7.203125 C 5.273438 -7.359375 4.859375 -7.4375 4.296875 -7.4375 C 3.660156 -7.4375 3.09375 -7.421875 2.59375 -7.390625 C 2.09375 -7.359375 1.640625 -7.300781 1.234375 -7.21875 L 1.234375 -9.671875 C 1.722656 -9.796875 2.289062 -9.882812 2.9375 -9.9375 C 3.59375 -10 4.351562 -10.03125 5.21875 -10.03125 C 6.4375 -10.03125 7.359375 -9.757812 7.984375 -9.21875 C 8.617188 -8.675781 8.9375 -7.875 8.9375 -6.8125 L 8.9375 0 L 6.15625 0 L 6.046875 -0.84375 L 5.984375 -0.84375 C 5.578125 -0.519531 5.128906 -0.265625 4.640625 -0.078125 C 4.148438 0.109375 3.6875 0.203125 3.25 0.203125 Z M 4.484375 -4 C 3.953125 -4 3.59375 -3.941406 3.40625 -3.828125 C 3.21875 -3.710938 3.125 -3.476562 3.125 -3.125 C 3.125 -2.789062 3.195312 -2.5625 3.34375 -2.4375 C 3.5 -2.3125 3.769531 -2.25 4.15625 -2.25 C 4.445312 -2.25 4.75 -2.285156 5.0625 -2.359375 C 5.382812 -2.441406 5.679688 -2.546875 5.953125 -2.671875 L 5.953125 -3.875 C 5.796875 -3.914062 5.597656 -3.945312 5.359375 -3.96875 C 5.117188 -3.988281 4.828125 -4 4.484375 -4 Z M 4.484375 -4 "/></g></g></g><g fill="#000000" fill-opacity="1"><g transform="translate(84.849876, 23.597801)"><g><path d="M 8.15625 -3 L 8.15625 -0.53125 C 7.84375 -0.332031 7.328125 -0.160156 6.609375 -0.015625 C 5.890625 0.128906 5.15625 0.203125 4.40625 0.203125 C 2.96875 0.203125 1.957031 -0.175781 1.375 -0.9375 C 0.800781 -1.707031 0.515625 -3.035156 0.515625 -4.921875 C 0.515625 -6.804688 0.882812 -8.128906 1.625 -8.890625 C 2.375 -9.648438 3.675781 -10.03125 5.53125 -10.03125 C 5.976562 -10.03125 6.378906 -10.019531 6.734375 -10 C 7.097656 -9.976562 7.488281 -9.941406 7.90625 -9.890625 L 7.90625 -7.25 C 7.25 -7.300781 6.773438 -7.328125 6.484375 -7.328125 C 6.191406 -7.335938 5.875 -7.34375 5.53125 -7.34375 C 4.613281 -7.34375 4.046875 -7.210938 3.828125 -6.953125 C 3.609375 -6.691406 3.5 -6.015625 3.5 -4.921875 C 3.5 -3.921875 3.585938 -3.28125 3.765625 -3 C 3.953125 -2.726562 4.367188 -2.59375 5.015625 -2.59375 C 5.546875 -2.59375 6.097656 -2.628906 6.671875 -2.703125 C 7.253906 -2.785156 7.75 -2.882812 8.15625 -3 Z M 8.15625 -3 "/></g></g></g><g fill="#000000" fill-opacity="1"><g transform="translate(94.326628, 23.597801)"><g><path d="M 3.84375 -3.828125 L 3.84375 0 L 0.859375 0 L 0.859375 -13.234375 L 3.84375 -13.234375 L 3.84375 -6.125 L 4.296875 -6.125 L 6.78125 -9.828125 L 10.328125 -9.828125 L 6.875 -5.09375 L 10.53125 0 L 6.890625 0 L 4.296875 -3.828125 Z M 3.84375 -3.828125 "/></g></g></g><g fill="#000000" fill-opacity="1"><g transform="translate(105.595149, 23.597801)"><g><path d="M 3.46875 0 L 0.578125 0 L 0.578125 -2.75 L 3.46875 -2.75 Z M 3.46875 0 "/></g></g></g><g fill="#55b02e" fill-opacity="1"><g transform="translate(110.574274, 23.597801)"><g><path d="M 3.1875 0 L -0.0625 0 L 4.5625 -12.484375 L 7.765625 -12.484375 L 12.265625 0 L 9.03125 0 L 8.375 -2.09375 L 3.84375 -2.09375 Z M 6.09375 -9.421875 C 5.988281 -9.046875 5.867188 -8.648438 5.734375 -8.234375 C 5.609375 -7.816406 5.398438 -7.132812 5.109375 -6.1875 L 4.59375 -4.53125 L 7.609375 -4.53125 L 7.09375 -6.1875 C 6.914062 -6.695312 6.738281 -7.234375 6.5625 -7.796875 C 6.394531 -8.359375 6.238281 -8.898438 6.09375 -9.421875 Z M 6.09375 -9.421875 "/></g></g></g><g fill="#55b02e" fill-opacity="1"><g transform="translate(123.754014, 23.597801)"><g><path d="M 4.046875 -12.484375 L 4.046875 0 L 0.953125 0 L 0.953125 -12.484375 Z M 4.046875 -12.484375 "/></g></g></g><g fill="#000000" fill-opacity="1"><g transform="translate(129.692205, 23.597801)"><g/></g></g></svg>