<svg xmlns="http://www.w3.org/2000/svg" xmlns:xlink="http://www.w3.org/1999/xlink" width="447" zoomAndPan="magnify" viewBox="0 0 335.25 95.249998" height="127" preserveAspectRatio="xMidYMid meet" version="1.0"><defs><g/><clipPath id="fe533f295a"><path d="M 0.9375 47 L 40 47 L 40 94 L 0.9375 94 Z M 0.9375 47 " clip-rule="nonzero"/></clipPath><clipPath id="094a7ddab9"><path d="M 0.9375 0 L 40 0 L 40 60 L 0.9375 60 Z M 0.9375 0 " clip-rule="nonzero"/></clipPath></defs><g clip-path="url(#fe533f295a)"><path fill="#55b02e" d="M 34.691406 93.578125 L 0.988281 59.878906 L 13.726562 47.136719 L 34.691406 68.101562 C 41.71875 75.128906 41.71875 86.550781 34.691406 93.578125 Z M 34.691406 93.578125 " fill-opacity="1" fill-rule="nonzero"/></g><g clip-path="url(#094a7ddab9)"><path fill="#000000" d="M 34.691406 26.175781 L 0.988281 59.878906 L 0.988281 34.398438 L 34.691406 0.699219 C 41.746094 7.726562 41.746094 19.148438 34.691406 26.175781 Z M 34.691406 26.175781 " fill-opacity="1" fill-rule="nonzero"/></g><g fill="#000000" fill-opacity="1"><g transform="translate(57.663111, 65.519874)"><g><path d="M 11.078125 -12.4375 L 11.078125 0 L 2.625 0 L 2.625 -34.203125 L 25.6875 -34.203125 L 25.6875 -26.5625 L 11.078125 -26.5625 L 11.078125 -19.53125 L 23.671875 -19.53125 L 23.671875 -12.4375 Z M 11.078125 -12.4375 "/></g></g></g><g fill="#000000" fill-opacity="1"><g transform="translate(86.897788, 65.519874)"><g><path d="M 10.75 -29.890625 L 2.125 -29.890625 L 2.125 -36.28125 L 10.75 -36.28125 Z M 10.53125 0 L 2.34375 0 L 2.34375 -26.953125 L 10.53125 -26.953125 Z M 10.53125 0 "/></g></g></g><g fill="#000000" fill-opacity="1"><g transform="translate(102.33362, 65.519874)"><g><path d="M 10.53125 0 L 2.34375 0 L 2.34375 -26.953125 L 9.4375 -26.953125 L 9.765625 -24.109375 L 9.921875 -24.109375 C 11.085938 -25.304688 12.351562 -26.164062 13.71875 -26.6875 C 15.082031 -27.21875 16.726562 -27.484375 18.65625 -27.484375 C 21.707031 -27.484375 24.015625 -26.738281 25.578125 -25.25 C 27.140625 -23.757812 27.921875 -21.5625 27.921875 -18.65625 L 27.921875 0 L 19.75 0 L 19.75 -17.5625 C 19.75 -18.394531 19.410156 -19.03125 18.734375 -19.46875 C 18.066406 -19.90625 17.078125 -20.125 15.765625 -20.125 C 14.785156 -20.125 13.835938 -20.015625 12.921875 -19.796875 C 12.015625 -19.578125 11.21875 -19.269531 10.53125 -18.875 Z M 10.53125 0 "/></g></g></g><g fill="#000000" fill-opacity="1"><g transform="translate(135.05891, 65.519874)"><g><path d="M 4.09375 -20.125 L 0.921875 -20.125 L 0.921875 -26.953125 L 4.359375 -26.953125 L 5.40625 -33.21875 L 12.265625 -33.21875 L 12.265625 -26.953125 L 19.90625 -26.953125 L 19.90625 -20.125 L 12.265625 -20.125 L 12.265625 -9.65625 C 12.265625 -8.632812 12.53125 -7.953125 13.0625 -7.609375 C 13.59375 -7.265625 14.640625 -7.09375 16.203125 -7.09375 C 16.742188 -7.09375 17.414062 -7.132812 18.21875 -7.21875 C 19.019531 -7.3125 19.691406 -7.414062 20.234375 -7.53125 L 20.234375 -0.546875 C 19.648438 -0.285156 18.75 -0.0390625 17.53125 0.1875 C 16.3125 0.425781 15.234375 0.546875 14.296875 0.546875 C 10.660156 0.546875 8.050781 -0.222656 6.46875 -1.765625 C 4.882812 -3.316406 4.09375 -5.835938 4.09375 -9.328125 Z M 4.09375 -20.125 "/></g></g></g><g fill="#000000" fill-opacity="1"><g transform="translate(158.403181, 65.519874)"><g><path d="M 10.53125 0 L 2.34375 0 L 2.34375 -26.953125 L 9.984375 -26.953125 L 10.25 -24.875 L 10.359375 -24.875 C 11.671875 -25.675781 13.007812 -26.285156 14.375 -26.703125 C 15.738281 -27.117188 17.019531 -27.328125 18.21875 -27.328125 L 18.65625 -27.328125 L 18.65625 -19.421875 C 18.332031 -19.492188 17.976562 -19.535156 17.59375 -19.546875 C 17.207031 -19.566406 16.722656 -19.578125 16.140625 -19.578125 C 15.085938 -19.578125 14.085938 -19.515625 13.140625 -19.390625 C 12.203125 -19.265625 11.332031 -19.070312 10.53125 -18.8125 Z M 10.53125 0 "/></g></g></g><g fill="#000000" fill-opacity="1"><g transform="translate(180.329379, 65.519874)"><g><path d="M 8.890625 0.546875 C 6.128906 0.546875 4.101562 -0.140625 2.8125 -1.515625 C 1.519531 -2.898438 0.875 -5.085938 0.875 -8.078125 C 0.875 -11.128906 1.644531 -13.269531 3.1875 -14.5 C 4.738281 -15.738281 7.40625 -16.359375 11.1875 -16.359375 C 12.050781 -16.359375 12.945312 -16.3125 13.875 -16.21875 C 14.800781 -16.132812 15.613281 -16.019531 16.3125 -15.875 L 16.3125 -17.84375 C 16.3125 -18.707031 15.9375 -19.347656 15.1875 -19.765625 C 14.445312 -20.191406 13.3125 -20.40625 11.78125 -20.40625 C 10.03125 -20.40625 8.472656 -20.359375 7.109375 -20.265625 C 5.753906 -20.171875 4.507812 -20.015625 3.375 -19.796875 L 3.375 -26.515625 C 4.726562 -26.835938 6.296875 -27.078125 8.078125 -27.234375 C 9.859375 -27.398438 11.929688 -27.484375 14.296875 -27.484375 C 17.640625 -27.484375 20.171875 -26.738281 21.890625 -25.25 C 23.617188 -23.757812 24.484375 -21.5625 24.484375 -18.65625 L 24.484375 0 L 16.859375 0 L 16.578125 -2.296875 L 16.421875 -2.296875 C 15.296875 -1.421875 14.054688 -0.726562 12.703125 -0.21875 C 11.359375 0.289062 10.085938 0.546875 8.890625 0.546875 Z M 12.265625 -10.96875 C 10.816406 -10.96875 9.835938 -10.8125 9.328125 -10.5 C 8.816406 -10.1875 8.5625 -9.539062 8.5625 -8.5625 C 8.5625 -7.65625 8.769531 -7.023438 9.1875 -6.671875 C 9.601562 -6.328125 10.34375 -6.15625 11.40625 -6.15625 C 12.195312 -6.15625 13.03125 -6.265625 13.90625 -6.484375 C 14.78125 -6.703125 15.582031 -6.976562 16.3125 -7.3125 L 16.3125 -10.640625 C 15.875 -10.742188 15.328125 -10.820312 14.671875 -10.875 C 14.015625 -10.9375 13.210938 -10.96875 12.265625 -10.96875 Z M 12.265625 -10.96875 "/></g></g></g><g fill="#000000" fill-opacity="1"><g transform="translate(209.618594, 65.519874)"><g><path d="M 22.359375 -8.234375 L 22.359375 -1.46875 C 21.492188 -0.925781 20.078125 -0.453125 18.109375 -0.046875 C 16.140625 0.347656 14.125 0.546875 12.0625 0.546875 C 8.125 0.546875 5.363281 -0.5 3.78125 -2.59375 C 2.207031 -4.6875 1.421875 -8.3125 1.421875 -13.46875 C 1.421875 -18.632812 2.4375 -22.257812 4.46875 -24.34375 C 6.507812 -26.4375 10.070312 -27.484375 15.15625 -27.484375 C 16.394531 -27.484375 17.503906 -27.457031 18.484375 -27.40625 C 19.472656 -27.351562 20.53125 -27.253906 21.65625 -27.109375 L 21.65625 -19.859375 C 19.875 -20.003906 18.582031 -20.082031 17.78125 -20.09375 C 16.976562 -20.113281 16.101562 -20.125 15.15625 -20.125 C 12.65625 -20.125 11.101562 -19.769531 10.5 -19.0625 C 9.894531 -18.351562 9.59375 -16.488281 9.59375 -13.46875 C 9.59375 -10.738281 9.835938 -8.992188 10.328125 -8.234375 C 10.828125 -7.472656 11.96875 -7.09375 13.75 -7.09375 C 15.195312 -7.09375 16.710938 -7.203125 18.296875 -7.421875 C 19.878906 -7.640625 21.234375 -7.910156 22.359375 -8.234375 Z M 22.359375 -8.234375 "/></g></g></g><g fill="#000000" fill-opacity="1"><g transform="translate(235.580818, 65.519874)"><g><path d="M 10.53125 -10.46875 L 10.53125 0 L 2.34375 0 L 2.34375 -36.28125 L 10.53125 -36.28125 L 10.53125 -16.796875 L 11.78125 -16.796875 L 18.59375 -26.953125 L 28.3125 -26.953125 L 18.8125 -13.96875 L 28.859375 0 L 18.875 0 L 11.78125 -10.46875 Z M 10.53125 -10.46875 "/></g></g></g><g fill="#000000" fill-opacity="1"><g transform="translate(266.451716, 65.519874)"><g><path d="M 9.484375 0 L 1.578125 0 L 1.578125 -7.53125 L 9.484375 -7.53125 Z M 9.484375 0 "/></g></g></g><g fill="#55b02e" fill-opacity="1"><g transform="translate(280.092378, 65.519874)"><g><path d="M 8.734375 0 L -0.15625 0 L 12.484375 -34.203125 L 21.265625 -34.203125 L 33.59375 0 L 24.765625 0 L 22.96875 -5.734375 L 10.53125 -5.734375 Z M 16.6875 -25.796875 C 16.394531 -24.773438 16.078125 -23.691406 15.734375 -22.546875 C 15.390625 -21.410156 14.816406 -19.550781 14.015625 -16.96875 L 12.59375 -12.4375 L 20.84375 -12.4375 L 19.421875 -16.96875 C 18.941406 -18.34375 18.46875 -19.800781 18 -21.34375 C 17.53125 -22.894531 17.09375 -24.378906 16.6875 -25.796875 Z M 16.6875 -25.796875 "/></g></g></g><g fill="#55b02e" fill-opacity="1"><g transform="translate(316.199196, 65.519874)"><g><path d="M 11.078125 -34.203125 L 11.078125 0 L 2.625 0 L 2.625 -34.203125 Z M 11.078125 -34.203125 "/></g></g></g><g fill="#000000" fill-opacity="1"><g transform="translate(332.467284, 65.519874)"><g/></g></g></svg>