<svg xmlns="http://www.w3.org/2000/svg" xmlns:xlink="http://www.w3.org/1999/xlink" width="55" zoomAndPan="magnify" viewBox="0 0 41.25 95.249999" height="127" preserveAspectRatio="xMidYMid meet" version="1.0"><defs><g/></defs><path fill="#55b02e" d="M 33.46875 93.363281 L 0.0507812 59.945312 L 12.683594 47.3125 L 33.46875 68.097656 C 40.4375 75.070312 40.4375 86.394531 33.46875 93.363281 Z M 33.46875 93.363281 " fill-opacity="1" fill-rule="nonzero"/><path fill="#000000" d="M 33.46875 26.527344 L 0.0507812 59.945312 L 0.0507812 34.683594 L 33.46875 1.265625 C 40.464844 8.234375 40.464844 19.558594 33.46875 26.527344 Z M 33.46875 26.527344 " fill-opacity="1" fill-rule="nonzero"/><g fill="#000000" fill-opacity="1"><g transform="translate(7.323486, 39.375)"><g><path d="M 0.359375 0 L 0.1875 0 L 0.1875 -1.390625 L 0.96875 -1.390625 L 0.96875 -1.25 L 0.359375 -1.25 L 0.359375 -0.734375 L 0.9375 -0.734375 L 0.9375 -0.59375 L 0.359375 -0.59375 Z M 0.359375 0 "/></g></g></g><g fill="#000000" fill-opacity="1"><g transform="translate(8.33332, 39.375)"><g><path d="M 0.328125 0 L 0.171875 0 L 0.171875 -1.046875 L 0.328125 -1.046875 Z M 0.15625 -1.328125 C 0.15625 -1.367188 0.160156 -1.394531 0.171875 -1.40625 C 0.191406 -1.425781 0.21875 -1.4375 0.25 -1.4375 C 0.269531 -1.4375 0.289062 -1.425781 0.3125 -1.40625 C 0.332031 -1.382812 0.34375 -1.359375 0.34375 -1.328125 C 0.34375 -1.296875 0.332031 -1.269531 0.3125 -1.25 C 0.289062 -1.226562 0.269531 -1.21875 0.25 -1.21875 C 0.21875 -1.21875 0.191406 -1.226562 0.171875 -1.25 C 0.160156 -1.269531 0.15625 -1.296875 0.15625 -1.328125 Z M 0.15625 -1.328125 "/></g></g></g><g fill="#000000" fill-opacity="1"><g transform="translate(8.828205, 39.375)"><g><path d="M 0.890625 0 L 0.890625 -0.671875 C 0.890625 -0.753906 0.867188 -0.816406 0.828125 -0.859375 C 0.785156 -0.910156 0.722656 -0.9375 0.640625 -0.9375 C 0.535156 -0.9375 0.457031 -0.90625 0.40625 -0.84375 C 0.351562 -0.78125 0.328125 -0.679688 0.328125 -0.546875 L 0.328125 0 L 0.171875 0 L 0.171875 -1.046875 L 0.296875 -1.046875 L 0.328125 -0.90625 C 0.359375 -0.957031 0.398438 -0.992188 0.453125 -1.015625 C 0.515625 -1.046875 0.582031 -1.0625 0.65625 -1.0625 C 0.78125 -1.0625 0.875 -1.03125 0.9375 -0.96875 C 1.007812 -0.90625 1.046875 -0.8125 1.046875 -0.6875 L 1.046875 0 Z M 0.890625 0 "/></g></g></g><g fill="#000000" fill-opacity="1"><g transform="translate(10.029114, 39.375)"><g><path d="M 0.625 0 L 0.453125 0 L 0.453125 -1.25 L 0.015625 -1.25 L 0.015625 -1.390625 L 1.0625 -1.390625 L 1.0625 -1.25 L 0.625 -1.25 Z M 0.625 0 "/></g></g></g><g fill="#000000" fill-opacity="1"><g transform="translate(11.111557, 39.375)"><g><path d="M 0.640625 -1.0625 C 0.691406 -1.0625 0.734375 -1.054688 0.765625 -1.046875 L 0.75 -0.90625 C 0.707031 -0.914062 0.671875 -0.921875 0.640625 -0.921875 C 0.546875 -0.921875 0.46875 -0.882812 0.40625 -0.8125 C 0.351562 -0.75 0.328125 -0.664062 0.328125 -0.5625 L 0.328125 0 L 0.171875 0 L 0.171875 -1.046875 L 0.296875 -1.046875 L 0.3125 -0.859375 L 0.328125 -0.859375 C 0.359375 -0.921875 0.398438 -0.96875 0.453125 -1 C 0.515625 -1.039062 0.578125 -1.0625 0.640625 -1.0625 Z M 0.640625 -1.0625 "/></g></g></g><g fill="#000000" fill-opacity="1"><g transform="translate(11.910252, 39.375)"><g><path d="M 0.8125 0 L 0.78125 -0.15625 L 0.765625 -0.15625 C 0.710938 -0.0820312 0.660156 -0.0351562 0.609375 -0.015625 C 0.554688 0.00390625 0.492188 0.015625 0.421875 0.015625 C 0.316406 0.015625 0.234375 -0.0078125 0.171875 -0.0625 C 0.117188 -0.113281 0.09375 -0.1875 0.09375 -0.28125 C 0.09375 -0.5 0.257812 -0.613281 0.59375 -0.625 L 0.765625 -0.625 L 0.765625 -0.6875 C 0.765625 -0.769531 0.75 -0.832031 0.71875 -0.875 C 0.6875 -0.914062 0.628906 -0.9375 0.546875 -0.9375 C 0.460938 -0.9375 0.363281 -0.910156 0.25 -0.859375 L 0.203125 -0.96875 C 0.253906 -1 0.3125 -1.019531 0.375 -1.03125 C 0.4375 -1.050781 0.5 -1.0625 0.5625 -1.0625 C 0.6875 -1.0625 0.773438 -1.03125 0.828125 -0.96875 C 0.890625 -0.914062 0.921875 -0.832031 0.921875 -0.71875 L 0.921875 0 Z M 0.453125 -0.109375 C 0.546875 -0.109375 0.617188 -0.132812 0.671875 -0.1875 C 0.734375 -0.25 0.765625 -0.328125 0.765625 -0.421875 L 0.765625 -0.515625 L 0.609375 -0.5 C 0.484375 -0.5 0.390625 -0.476562 0.328125 -0.4375 C 0.273438 -0.40625 0.25 -0.351562 0.25 -0.28125 C 0.25 -0.226562 0.265625 -0.1875 0.296875 -0.15625 C 0.335938 -0.125 0.390625 -0.109375 0.453125 -0.109375 Z M 0.453125 -0.109375 "/></g></g></g><g fill="#000000" fill-opacity="1"><g transform="translate(12.998427, 39.375)"><g><path d="M 0.578125 0.015625 C 0.429688 0.015625 0.316406 -0.03125 0.234375 -0.125 C 0.148438 -0.21875 0.109375 -0.347656 0.109375 -0.515625 C 0.109375 -0.691406 0.148438 -0.828125 0.234375 -0.921875 C 0.316406 -1.015625 0.4375 -1.0625 0.59375 -1.0625 C 0.644531 -1.0625 0.695312 -1.054688 0.75 -1.046875 C 0.800781 -1.035156 0.835938 -1.023438 0.859375 -1.015625 L 0.8125 -0.875 C 0.78125 -0.882812 0.742188 -0.894531 0.703125 -0.90625 C 0.660156 -0.914062 0.625 -0.921875 0.59375 -0.921875 C 0.382812 -0.921875 0.28125 -0.785156 0.28125 -0.515625 C 0.28125 -0.390625 0.300781 -0.289062 0.34375 -0.21875 C 0.394531 -0.15625 0.472656 -0.125 0.578125 -0.125 C 0.671875 -0.125 0.757812 -0.140625 0.84375 -0.171875 L 0.84375 -0.03125 C 0.78125 0 0.691406 0.015625 0.578125 0.015625 Z M 0.578125 0.015625 "/></g></g></g><g fill="#000000" fill-opacity="1"><g transform="translate(13.92992, 39.375)"><g><path d="M 0.328125 -0.53125 C 0.347656 -0.570312 0.390625 -0.625 0.453125 -0.6875 L 0.78125 -1.046875 L 0.96875 -1.046875 L 0.546875 -0.59375 L 1 0 L 0.8125 0 L 0.4375 -0.5 L 0.328125 -0.390625 L 0.328125 0 L 0.171875 0 L 0.171875 -1.484375 L 0.328125 -1.484375 L 0.328125 -0.703125 C 0.328125 -0.660156 0.320312 -0.601562 0.3125 -0.53125 Z M 0.328125 -0.53125 "/></g></g></g><g fill="#000000" fill-opacity="1"><g transform="translate(14.95695, 39.375)"><g><path d="M 0.140625 -0.09375 C 0.140625 -0.144531 0.148438 -0.179688 0.171875 -0.203125 C 0.191406 -0.222656 0.21875 -0.234375 0.25 -0.234375 C 0.289062 -0.234375 0.320312 -0.222656 0.34375 -0.203125 C 0.363281 -0.179688 0.375 -0.144531 0.375 -0.09375 C 0.375 -0.0625 0.363281 -0.03125 0.34375 0 C 0.320312 0.0195312 0.289062 0.03125 0.25 0.03125 C 0.21875 0.03125 0.191406 0.0195312 0.171875 0 C 0.148438 -0.0195312 0.140625 -0.0507812 0.140625 -0.09375 Z M 0.140625 -0.09375 "/></g></g></g><g fill="#000000" fill-opacity="1"><g transform="translate(15.477631, 39.375)"><g><path d="M 1.0625 0 L 0.890625 -0.4375 L 0.328125 -0.4375 L 0.15625 0 L 0 0 L 0.546875 -1.40625 L 0.6875 -1.40625 L 1.234375 0 Z M 0.84375 -0.59375 L 0.6875 -1.015625 C 0.664062 -1.078125 0.640625 -1.144531 0.609375 -1.21875 C 0.597656 -1.15625 0.582031 -1.085938 0.5625 -1.015625 L 0.390625 -0.59375 Z M 0.84375 -0.59375 "/></g></g></g><g fill="#000000" fill-opacity="1"><g transform="translate(16.7158, 39.375)"><g><path d="M 0.1875 0 L 0.1875 -1.390625 L 0.359375 -1.390625 L 0.359375 0 Z M 0.1875 0 "/></g></g></g></svg>